<svg xmlns="http://www.w3.org/2000/svg" xmlns:xlink="http://www.w3.org/1999/xlink" width="120" height="68" viewBox="0 0 120 68">
  <defs>
    <clipPath id="clip-Teaser">
      <rect width="120" height="68"/>
    </clipPath>
  </defs>
  <g id="Teaser" clip-path="url(#clip-Teaser)">
    <rect width="120" height="68" fill="#11469b"/>
    <g id="Group_12" data-name="Group 12">
      <g id="Group_8" data-name="Group 8" transform="translate(4 4)">
        <rect id="region-content" width="24" height="23" rx="11.5" transform="translate(2 2)" fill="#ebebeb"/>
      </g>
      <g id="Group_9" data-name="Group 9" transform="translate(11.998 12)">
        <path id="Path_1" data-name="Path 1" d="M5.145,5.071A1.071,1.071,0,1,1,4.073,4,1.071,1.071,0,0,1,5.145,5.071" transform="translate(-0.857 -0.857)" fill="#b4b4b4"/>
        <path id="Path_2" data-name="Path 2" d="M1.431,1A1.429,1.429,0,0,0,0,2.429V9.571A1.429,1.429,0,0,0,1.431,11H10a1.429,1.429,0,0,0,1.429-1.429V2.429A1.429,1.429,0,0,0,10,1ZM10,1.714a.714.714,0,0,1,.714.714V7.071l-2.7-1.391a.357.357,0,0,0-.412.066L4.956,8.4l-1.9-1.266a.357.357,0,0,0-.45.044L.716,8.857V2.429a.714.714,0,0,1,.714-.714Z" fill="#b4b4b4"/>
      </g>
    </g>
    <g id="Group_10" data-name="Group 10" transform="translate(0 6)">
      <g id="Group_13" data-name="Group 13" transform="translate(4)">
        <rect id="Rectangle_20" data-name="Rectangle 20" width="108" height="2" rx="1" transform="translate(2 29)" fill="#cecece"/>
        <rect id="Rectangle_21" data-name="Rectangle 21" width="108" height="2" rx="1" transform="translate(2 35)" fill="#cecece"/>
        <rect id="Rectangle_22" data-name="Rectangle 22" width="59" height="2" rx="1" transform="translate(2 41)" fill="#cecece"/>
      </g>
    </g>
    <rect id="Rectangle_11" data-name="Rectangle 11" width="20" height="6" rx="1" transform="translate(6 53)" fill="#9a9ddb"/>
    <g id="Group_11" data-name="Group 11" transform="translate(0 4)">
      <rect id="Rectangle_23" data-name="Rectangle 23" width="63" height="2" rx="1" transform="translate(36 15)" fill="#cecece"/>
      <rect id="Rectangle_24" data-name="Rectangle 24" width="74" height="3" rx="1.5" transform="translate(36 10)" fill="#acacac"/>
    </g>
    <path id="Path_3" data-name="Path 3" d="M.27,0V-2.114H.576L1.3-.35h.023l.724-1.764h.306V0H2.106V-1.614H1.978l.3-.441L1.422,0H1.2L.35-2.055l.294.441H.516V0ZM3.628.028a.734.734,0,0,1-.387-.1.653.653,0,0,1-.252-.282A.99.99,0,0,1,2.9-.788v0a.993.993,0,0,1,.089-.437.648.648,0,0,1,.252-.281.738.738,0,0,1,.387-.1.737.737,0,0,1,.388.1.65.65,0,0,1,.251.281.993.993,0,0,1,.089.437v0a.99.99,0,0,1-.089.435.655.655,0,0,1-.251.282A.733.733,0,0,1,3.628.028Zm0-.226a.442.442,0,0,0,.253-.07.441.441,0,0,0,.159-.2A.825.825,0,0,0,4.1-.788v0a.83.83,0,0,0-.055-.319.436.436,0,0,0-.159-.2.445.445,0,0,0-.253-.07.445.445,0,0,0-.253.07.436.436,0,0,0-.159.2.83.83,0,0,0-.055.319v0a.825.825,0,0,0,.055.318.441.441,0,0,0,.159.2A.442.442,0,0,0,3.628-.2ZM5.455.028a.607.607,0,0,1-.349-.1.657.657,0,0,1-.231-.285,1.047,1.047,0,0,1-.082-.43v0a1.046,1.046,0,0,1,.082-.431.66.66,0,0,1,.231-.284.606.606,0,0,1,.349-.1.6.6,0,0,1,.2.034.567.567,0,0,1,.171.1.447.447,0,0,1,.117.146h.023v-.876h.255V0H5.971V-.252H5.947a.53.53,0,0,1-.122.15.534.534,0,0,1-.167.1A.6.6,0,0,1,5.455.028ZM5.514-.2A.425.425,0,0,0,5.761-.27a.454.454,0,0,0,.16-.2.808.808,0,0,0,.056-.314v0a.807.807,0,0,0-.056-.315.455.455,0,0,0-.16-.2.425.425,0,0,0-.248-.072.425.425,0,0,0-.247.071.447.447,0,0,0-.158.2.821.821,0,0,0-.055.316v0a.822.822,0,0,0,.055.316.447.447,0,0,0,.158.2A.425.425,0,0,0,5.514-.2ZM7.269.028A.615.615,0,0,1,7-.029a.458.458,0,0,1-.189-.163.442.442,0,0,1-.07-.249v0a.422.422,0,0,1,.067-.241A.447.447,0,0,1,7-.842.893.893,0,0,1,7.317-.91L7.9-.945v.2l-.549.035a.475.475,0,0,0-.263.075A.217.217,0,0,0,7-.45v0a.218.218,0,0,0,.091.187.376.376,0,0,0,.229.067.5.5,0,0,0,.231-.052.406.406,0,0,0,.159-.141.364.364,0,0,0,.058-.2v-.492A.28.28,0,0,0,7.681-1.3a.4.4,0,0,0-.266-.077.476.476,0,0,0-.233.051.251.251,0,0,0-.122.143v0H6.8v-.009a.424.424,0,0,1,.1-.218.553.553,0,0,1,.215-.145.813.813,0,0,1,.3-.052.766.766,0,0,1,.327.063.453.453,0,0,1,.2.181.545.545,0,0,1,.07.282V0H7.77V-.233H7.746a.542.542,0,0,1-.121.142A.5.5,0,0,1,7.465,0,.613.613,0,0,1,7.269.028ZM8.625,0V-2.206H8.88V0Z" transform="translate(11 57)" fill="#fff"/>
  </g>
</svg>
