<svg xmlns="http://www.w3.org/2000/svg" xmlns:xlink="http://www.w3.org/1999/xlink" width="120" height="68" viewBox="0 0 120 68">
  <defs>
    <clipPath id="clip-Box_1">
      <rect width="120" height="68"/>
    </clipPath>
  </defs>
  <g id="Box_1" data-name="Box – 1" clip-path="url(#clip-Box_1)">
    <rect width="120" height="68" fill="#11469b"/>
    <g id="Group_14" data-name="Group 14" transform="translate(49.642 1.436) rotate(30)">
      <path id="Path_1" data-name="Path 1" d="M12.5,8.75A4.75,4.75,0,1,1,7.752,4,4.75,4.75,0,0,1,12.5,8.75" transform="translate(6.5 6.5)" fill="#b4b4b4"/>
      <path id="Path_2" data-name="Path 2" d="M6.336,1A6.334,6.334,0,0,0,0,7.334V39a6.334,6.334,0,0,0,6.334,6.334h38A6.334,6.334,0,0,0,50.671,39V7.334A6.334,6.334,0,0,0,44.337,1Zm38,3.167A3.167,3.167,0,0,1,47.5,7.334V27.918L35.543,21.752a1.583,1.583,0,0,0-1.827.295L21.967,33.8l-8.424-5.612a1.583,1.583,0,0,0-2,.2L3.169,35.835V7.334A3.167,3.167,0,0,1,6.336,4.167Z" transform="translate(0)" fill="#b4b4b4"/>
    </g>
    <g id="Group_15" data-name="Group 15" transform="translate(34.664 11)">
      <path id="Path_1-2" data-name="Path 1" d="M12.5,8.75A4.75,4.75,0,1,1,7.752,4,4.75,4.75,0,0,1,12.5,8.75" transform="translate(6.5 6.5)" fill="rgba(180,180,180,0.4)"/>
      <path id="Path_2-2" data-name="Path 2" d="M6.336,1A6.334,6.334,0,0,0,0,7.334V39a6.334,6.334,0,0,0,6.334,6.334h38A6.334,6.334,0,0,0,50.671,39V7.334A6.334,6.334,0,0,0,44.337,1Zm38,3.167A3.167,3.167,0,0,1,47.5,7.334V27.918L35.543,21.752a1.583,1.583,0,0,0-1.827.295L21.967,33.8l-8.424-5.612a1.583,1.583,0,0,0-2,.2L3.169,35.835V7.334A3.167,3.167,0,0,1,6.336,4.167Z" transform="translate(0)" fill="rgba(180,180,180,0.4)"/>
    </g>
    <g id="Group_16" data-name="Group 16" transform="matrix(0.966, 0.259, -0.259, 0.966, 41.523, 5.232)">
      <path id="Path_1-3" data-name="Path 1" d="M12.5,8.75A4.75,4.75,0,1,1,7.752,4,4.75,4.75,0,0,1,12.5,8.75" transform="translate(6.5 6.5)" fill="rgba(180,180,180,0.7)"/>
      <path id="Path_2-3" data-name="Path 2" d="M6.336,1A6.334,6.334,0,0,0,0,7.334V39a6.334,6.334,0,0,0,6.334,6.334h38A6.334,6.334,0,0,0,50.671,39V7.334A6.334,6.334,0,0,0,44.337,1Zm38,3.167A3.167,3.167,0,0,1,47.5,7.334V27.918L35.543,21.752a1.583,1.583,0,0,0-1.827.295L21.967,33.8l-8.424-5.612a1.583,1.583,0,0,0-2,.2L3.169,35.835V7.334A3.167,3.167,0,0,1,6.336,4.167Z" transform="translate(0)" fill="rgba(180,180,180,0.7)"/>
    </g>
  </g>
</svg>

